<svg width="296" height="72" viewBox="0 0 296 72" fill="none" xmlns="http://www.w3.org/2000/svg">
<path d="M0.5 14.464H18.5488L85.6314 14.464L106.688 16.946L135.967 14.464L166.049 21.9101L207.762 16.946L246.667 21.9101L295 19.6079V66.518L0.5 71.482V14.464Z" fill="#B35050" fill-opacity="0.62"/>
<path d="M0.5 19.4281H18.5488L85.6314 19.4281L106.688 21.9101L135.967 19.4281L166.049 26.8741L207.762 21.9101L246.667 26.8741L264.515 21.9101L295 24.5719V69L0.5 71.482V19.4281Z" fill="#B35050" fill-opacity="0.62"/>
<path d="M0 4.92494H22.6531L49.0816 7.38741L75.5102 9.84988L112.258 7.38741L150.014 14.7748L202.367 9.84988L251.197 14.7748L296 4.92494V70.5H0V4.92494Z" fill="#B35050" fill-opacity="0.67"/>
<path d="M0 9.84988H22.6531L49.0816 12.3124L75.5102 14.7748L112.258 12.3124L150.014 19.6998L202.367 14.7748L251.197 19.6998L273.599 14.7748L296 9.84988V70.5H0V9.84988Z" fill="#B35050" fill-opacity="0.67"/>
</svg>
