<svg width="49" height="53" viewBox="0 0 49 53" fill="none" xmlns="http://www.w3.org/2000/svg">
<path d="M0 0.434784C0 0.434784 19.5 4.89855 24.5 4.89855C29.5 4.89855 49 0.434784 49 0.434784C49 0.434784 43.0488 13.2191 43.0244 17.1494C43 21.0797 49 33.864 49 33.864L24.5 52.8841L0 33.864C0 33.864 6 20.5217 5.97561 17.1494C5.95122 13.777 0 0.434784 0 0.434784Z" fill="#292929"/>
<path d="M22.848 27.984L22.688 35.856L25.376 36.08C25.376 36.6773 25.1947 37.3173 24.832 38H17.472L17.376 36.88C18.3147 36.5387 19.2213 36.2933 20.096 36.144C19.968 27.824 19.8613 21.6373 19.776 17.584C19.3067 17.5413 18.368 17.2853 16.96 16.816L17.12 15.6H32.544C32.5867 15.8773 32.608 16.304 32.608 16.88C32.608 18.032 32.4587 19.312 32.16 20.72C31.6907 20.8053 31.072 20.848 30.304 20.848L29.536 17.808H22.976C22.9333 19.6 22.8907 22.288 22.848 25.872H27.904L28.16 23.568C28.7573 23.568 29.3973 23.7493 30.08 24.112V30.192L28.96 30.288C28.64 29.3707 28.4267 28.6027 28.32 27.984H22.848Z" fill="#B35050"/>
</svg>
